<?xml version="1.0" encoding="utf-8"?>
<!-- Generator: Adobe Illustrator 26.0.1, SVG Export Plug-In . SVG Version: 6.00 Build 0)  -->
<svg version="1.1" id="레이어_1" xmlns="http://www.w3.org/2000/svg" xmlns:xlink="http://www.w3.org/1999/xlink" x="0px"
	 y="0px" viewBox="0 0 500 500" style="enable-background:new 0 0 500 500;" xml:space="preserve">
<style type="text/css">
	.st0{fill:#222222;}
</style>
<g>
	<path class="st0" d="M81.7,359.3c-1.8-0.6-6.1-1.2-8.8-1.2l-3.1,1.4c-4.1,0.3-28,0.8-31.9,0.7c-2.3,0-6-0.2-8.9-0.7l-0.6,1.3
		c-0.1,0.2-0.1,0.5,0.3,0.8c2,1.6,5.2,3.4,7.8,4.3c1.7-0.6,5.4-1.4,7.3-1.6c3.5-0.2,24.7-0.7,28.1-0.7c2.3,0,6.8,0.2,8.7,0.4
		c0.8-0.4,2.1-1.8,2.1-3.5C82.7,360,82.3,359.5,81.7,359.3z"/>
	<path class="st0" d="M57,370.3c-11.2,0-20.2,7.1-20.2,17.4c0,10.2,9.1,17.3,20.2,17.3c11,0,19.9-7.1,19.9-17.3
		C76.9,377.3,68,370.3,57,370.3z M57,400.4c-7.5,0-13.6-4.8-13.6-12.8c0-8,6.1-13,13.6-13c7.5,0,13.6,4.9,13.6,13
		C70.6,395.5,64.5,400.4,57,400.4z"/>
	<path class="st0" d="M113.3,412.9v-71.8l0.2-4.9c0.1-0.9-0.2-1.6-1.3-2c-2.5-1.1-8.5-2.3-11.9-2.4c-0.6,0-0.9,0.1-1.1,0.5l-0.7,2.2
		c3.5,1.2,6.6,2.8,8.3,4.9v38.4l-13.2,0.3v-31.5l0.2-4.5c0-0.8-0.3-1.5-1.2-1.8c-2.4-1.1-7.9-2.2-11-2.3c-0.7,0-1.1,0.2-1.2,0.5
		l-0.7,2.2c3.1,1.1,6,2.6,7.5,4.4V408c0,4.3,0.1,13,0.5,17.3h3.6c1.4-5.4,2.2-14.1,2.2-19.6v-23.2l13.2-0.3v33.2
		c0,4.4,0.2,13.3,0.4,17.4h3.8C112.4,427.4,113.3,418.6,113.3,412.9z"/>
	<path class="st0" d="M66.5,346.2c-7.2-0.1-16.1-0.4-25.2-2.1l-0.6,0.8c-0.1,0.3-0.1,0.5,0.1,0.8c1.8,2.2,4.2,4.3,6.3,5.5
		c0.5,0.3,0.8,0.3,1.7,0.3c4.4-0.4,12.1-0.5,17.5-0.6c0.5,0,1.1-0.1,1.3-0.6c0.4-0.6,0.6-2.3,0.2-3.3
		C67.7,346.5,67.4,346.2,66.5,346.2z"/>
	<path class="st0" d="M244.3,407.5c0-0.7-0.5-1.4-1.4-1.6c-2.3-0.7-7.7-1.4-11.4-1.5l-3.7,1.6c-1.8,0.1-6.5,0.2-12.7,0.3
		c5.2-16.1,9-38.6,9.4-53.2l1.4-3.3c0.2-0.4,0.2-0.8-0.2-1.3c-0.7-0.5-2.8-2-4-2.6c-0.5-0.2-1.2-0.2-1.7,0l-3.8,1.8
		c-8.1,0.4-41,0.9-46.5,0.8c-2.8,0-6.8-0.3-9.9-0.9l-0.6,1.3c-0.1,0.3-0.1,0.6,0.3,1.1c2.2,1.8,5.7,3.6,8.7,4.6
		c2.5-0.8,7.4-1.7,9.9-1.8c5.3-0.3,30-0.7,38.6-0.6c-0.2,15-2.4,37.6-5.4,54.2c-19,0.3-47.2,0.7-51.6,0.6c-3.2,0-7.9-0.4-11.3-1.1
		l-0.7,1.4c-0.1,0.3,0,0.6,0.3,0.8c2.5,2,6.2,4,10,5.2c2.4-0.8,7.6-1.9,10.2-2.1c5.5-0.3,54.7-0.9,62-0.8c3.2,0,9.2,0.2,11.9,0.5
		C243.1,410.5,244.3,409.1,244.3,407.5z"/>
	<path class="st0" d="M365.3,374.9c-2-0.4-6.2-0.6-9.3-0.5l-3.4,2l-7.8,0.3v-35.1l0.2-5.4c0-0.9-0.3-1.7-1.2-2
		c-2.8-1.1-9.2-2.4-12.8-2.5c-0.7,0-1.1,0.1-1.2,0.5l-0.6,2.2c3.7,1.3,7.1,3.1,9.1,5.3V394c-14.7,4-37.9,6.7-51.5,6.8
		c-1.5,0-1.9-0.5-1.9-1.8v-21.6l32.9-1c0.3-0.4,0.8-1.4,0.8-2.4c0-0.3-0.2-0.7-0.6-1l-1.9-0.9c0.9-4.6,2.1-14.1,2.2-19.5l1.2-2.5
		c0.2-0.6,0.2-1.1-0.2-1.4c-0.7-0.5-2.7-1.8-3.8-2.3c-0.4-0.2-1.2-0.2-1.7,0L311,348c-5.3,0.4-25,0.8-29,0.7c-2.5,0-6.2-0.2-8.9-0.7
		l-0.6,1.3c-0.1,0.3-0.1,0.6,0.3,0.9c2.1,1.5,4.8,3.1,7.9,4.1c2.3-0.7,5.9-1.5,7.8-1.6c2.9-0.2,17.8-0.5,22.4-0.6
		c0.2,4.2,0.1,15.7-0.3,20l-1.7,0.5c-3.3,0.3-17.8,0.6-23.9,0.7c-2.7-0.3-9-0.4-11.7-0.4c-0.6,0-1,0.2-1.1,0.5l-0.4,1.9
		c2.4,0.5,4.7,1.4,6.3,2.5v19.2c0,2,0.1,3.7,0.4,4.6c1.1,3,3.2,4.8,6.2,4.8c1.1,0,2.1,0,3.4-0.1c14.1-0.9,34.8-4.2,50.1-9v16.7
		c0,4.5,0.1,13.9,0.4,18.4h3.8c1.4-5.8,2.2-15,2.2-20.9v-31.3l18.7-0.3c0.5,0,1.3-0.1,1.8-0.3c0.6-0.4,1.3-1.7,1.3-3.5
		C366.7,375.8,366,375.1,365.3,374.9z"/>
	<path class="st0" d="M441.5,350.5c-0.4-0.2-1.3-0.2-1.6,0l-3.5,2c-7.5,0.3-22.1,0.5-29.5,0.5c-2.7-0.5-8.5-0.9-11.5-0.9
		c-0.6,0-0.8,0.1-0.9,0.4l-0.5,2.1c2.1,0.6,4.3,1.8,5.5,3.1l2.3,38.6c0.1,1.9,0.4,4.4,0.8,6.1h3.7c0.5-1.4,1-2.9,1.2-4.7l36.4-0.4
		c0.6-0.4,1.1-1.6,1.1-2.8c0-0.5-0.1-0.8-0.5-1.1l-2.1-0.8c1.2-11.1,2.1-24.2,2.3-35.1l1.3-3.2c0.2-0.5,0.1-0.9-0.2-1.3
		C444.9,352.3,442.7,351,441.5,350.5z M437.1,392.6l-1.9,0.5c-6.1,0.3-19.8,0.5-27.6,0.4l-0.8-36.6c9.5-0.3,21.2-0.5,30.8-0.5
		L437.1,392.6z"/>
	<path class="st0" d="M470.4,334.2c-2.8-1.1-9.2-2.4-12.7-2.5c-0.7,0-0.9,0.1-1.2,0.5l-0.6,2.2c3.8,1.3,7.2,3.1,9.1,5.3v74.6
		c0,4.5,0.2,13.9,0.4,18.4h3.8c1.4-5.8,2.2-15,2.2-20.9v-70.3l0.2-5.4C471.7,335.3,471.2,334.6,470.4,334.2z"/>
	<path class="st0" d="M122.1,471.6l-3.8-1.6c-2-0.9-4.3-1.8-4.3-4.4c0-2.4,1.9-3.9,4.9-3.9c2.4,0,4.4,1,6,2.5l1.7-2.1
		c-1.9-1.9-4.6-3.3-7.7-3.3c-4.8,0-8.2,2.9-8.2,7c0,3.8,2.9,5.7,5.3,6.7l3.8,1.6c2.5,1.1,4.4,2,4.4,4.6c0,2.6-2.1,4.3-5.5,4.3
		c-2.7,0-5.4-1.3-7.2-3.2l-2,2.2c2.3,2.4,5.5,3.9,9.2,3.9c5.5,0,8.9-3.3,8.9-7.4C127.4,474.7,125.1,472.9,122.1,471.6z"/>
	<polygon class="st0" points="137.2,462.1 145.2,462.1 145.2,485.5 148.5,485.5 148.5,462.1 156.4,462.1 156.4,459.3 137.2,459.3 	
		"/>
	<path class="st0" d="M172.8,459.3l-8.9,26.2h3.4l2.5-8h9.6l2.5,8h3.5l-8.9-26.2H172.8z M178.5,474.9h-7.9l1.3-4
		c0.9-3,1.8-5.8,2.6-8.9h0.1c0.9,3,1.7,5.9,2.6,8.9L178.5,474.9z"/>
	<path class="st0" d="M205,466.8c-0.8,1.9-1.7,3.7-2.6,5.7h-0.1c-0.9-2-1.7-3.8-2.6-5.7l-3.4-7.4h-3.5l7.9,16v10.2h3.3v-10.2l7.9-16
		h-3.4L205,466.8z"/>
	<path class="st0" d="M258.9,471.4h-3c-0.8,3-2.1,5.6-3.7,7.7c-2.5-2-4.9-4.7-6.6-7.4c2.9-2.1,5.9-4.3,5.9-7.7c0-3-1.9-5.2-5.1-5.2
		c-3.6,0-6,2.7-6,6.2c0,1.9,0.6,4,1.7,6.1c-2.7,1.9-5.1,4-5.1,7.6c0,4.2,3.2,7.2,8,7.2c3.1,0,5.6-1.2,7.6-3c2.1,1.5,4.1,2.5,6,3
		l0.9-2.7c-1.5-0.4-3.1-1.3-4.9-2.5C256.4,478.1,257.9,474.9,258.9,471.4z M246.3,461.2c1.8,0,2.5,1.4,2.5,2.9
		c0,2.3-2.1,3.9-4.5,5.5c-0.8-1.6-1.3-3.2-1.3-4.6C243.1,462.8,244.3,461.2,246.3,461.2z M245.2,483.4c-2.9,0-5.2-1.9-5.2-4.8
		c0-2,1.4-3.6,3.3-5.1c1.9,2.8,4.3,5.6,6.9,7.8C248.7,482.6,247,483.4,245.2,483.4z"/>
	<path class="st0" d="M297.2,483.1c-5,0-8.1-4.1-8.1-10.7c0-6.5,3.3-10.6,8.2-10.6c2.2,0,4,1,5.4,2.5l1.8-2.1
		c-1.5-1.7-4-3.3-7.2-3.3c-6.6,0-11.6,5.1-11.6,13.6c0,8.5,4.9,13.5,11.4,13.5c3.4,0,6-1.4,8-3.7l-1.8-2.1
		C301.6,482,299.7,483.1,297.2,483.1z"/>
	<path class="st0" d="M323.3,459.3l-8.9,26.2h3.4l2.5-8h9.6l2.5,8h3.5l-8.9-26.2H323.3z M329,474.9h-7.9l1.3-4
		c0.9-3,1.8-5.8,2.6-8.9h0.1c0.9,3,1.7,5.9,2.6,8.9L329,474.9z"/>
	<polygon class="st0" points="347.4,485.5 350.7,485.5 350.7,473.8 360.7,473.8 360.7,471 350.7,471 350.7,462.1 362.5,462.1 
		362.5,459.3 347.4,459.3 	"/>
	<polygon class="st0" points="378.3,473.2 388.3,473.2 388.3,470.4 378.3,470.4 378.3,462.1 390.1,462.1 390.1,459.3 375,459.3 
		375,485.5 390.5,485.5 390.5,482.7 378.3,482.7 	"/>
	<path class="st0" d="M108.6,89.9c1.3,0.9,3.1,0.5,3.9-0.8c28.9-44,77.6-70.3,130.2-70.3c36.9,0,72.7,13.1,100.7,37
		c27.8,23.6,46.5,56.2,52.7,91.8c0.2,1.4,1.4,2.3,2.8,2.3c0.2,0,0.3,0,0.5,0c1.5-0.3,2.6-1.7,2.3-3.3c-6.4-37-25.8-70.8-54.6-95.2
		C318.1,26.7,281,13.1,242.8,13.1c-54.5,0-105,27.2-135,72.8C107,87.3,107.3,89,108.6,89.9z"/>
	<path class="st0" d="M274.7,225.3c0-1.6-1.3-2.8-2.8-2.8h-58.3c-15,0-23.1-5.8-31-11.3c-8.6-6-16.7-11.8-31.3-8.5
		c-1.1,0.2-2,1.1-2.2,2.3c-0.2,1.1,0.3,2.3,1.3,2.9c0.3,0.2,8,5.2,5,10.9c-1.2,2.3-3.8,3.8-6.7,3.8h-33.8c-1.6,0-2.8,1.3-2.8,2.8
		c0,1.6,1.3,2.8,2.8,2.8h33.8c5,0,9.5-2.6,11.7-6.8c2.8-5.4,0.8-10.3-2.1-13.9c8.6-0.3,14.2,3.6,21,8.4c8.2,5.8,17.5,12.4,34.3,12.4
		h58.3C273.4,228.1,274.7,226.8,274.7,225.3z"/>
	<path class="st0" d="M251.3,274.4c8.2,5.8,17.5,12.4,34.3,12.4h114.3c1.6,0,2.8-1.3,2.8-2.8c0-1.6-1.3-2.8-2.8-2.8H285.6
		c-15,0-23.1-5.8-31-11.3c-8.6-6-16.7-11.8-31.3-8.5c-1.1,0.2-2,1.1-2.2,2.3c-0.2,1.1,0.3,2.3,1.3,2.9c0.3,0.2,8,5.2,5,10.9
		c-1.2,2.3-3.8,3.8-6.7,3.8h-38.6h-55.7H85.6c-1.6,0-2.8,1.3-2.8,2.8c0,1.6,1.3,2.8,2.8,2.8h40.7h55.7h38.6c5,0,9.5-2.6,11.7-6.8
		c2.8-5.4,0.8-10.3-2.1-13.9C238.9,265.7,244.5,269.6,251.3,274.4z"/>
	<path class="st0" d="M470.8,254.6c0-1.6-1.3-2.8-2.8-2.8h-15v-71.5c0-1.1-0.6-2.1-1.6-2.6l-4.9-2.3c-22.7-10.5-46.3-15.9-70.3-16
		H375c-18.4,0-37.2,3.5-55.1,9.9c-0.2,0-0.4,0.1-0.6,0.2c-5,1.8-10,3.9-14.9,6.2l-18.6,8.8c-1,0.5-1.6,1.5-1.6,2.6v64.6H263
		c-1.6,0-2.8,1.3-2.8,2.8c0,1.6,1.3,2.8,2.8,2.8h205C469.5,257.4,470.8,256.2,470.8,254.6z M447.2,182v69.7h-8.4v-73.5
		c1.7,0.7,3.4,1.5,5.1,2.3L447.2,182z M375,165.1h1c19.4,0,38.5,3.7,57.1,10.9v75.8H323.4v-15h74.2c1.6,0,2.8-1.3,2.8-2.8v-20.8
		c0-1.5-1.2-2.7-2.7-2.8c-7.2-0.4-14.5-0.6-21.6-0.6l-0.5,0l-0.5,0c-17.2,0-34.8,1.2-51.6,3.5v-8.2c16.9-4,34.4-6.1,51.7-6.1h1
		c7,0,14.1,0.4,21.2,1c0.8,0.1,1.6-0.2,2.2-0.7c0.6-0.5,0.9-1.3,0.9-2.1v-21.5c0-1.4-1-2.6-2.4-2.8c-7.3-1-14.6-1.5-21.9-1.6H375
		c-17.2,0-34.8,3-51.6,8.7v-5.8C340.2,168.2,357.8,165.1,375,165.1z M317.7,200.5c-4.4,1.1-8.7,2.4-13,3.8l-14.9,4.8v-8.4l17-8.1
		c3.6-1.7,7.2-3.3,10.9-4.7V200.5z M323.4,185.8c16.9-5.9,34.4-9,51.7-9h1c6.2,0,12.4,0.4,18.6,1.2v15.9c-6.2-0.5-12.5-0.8-18.6-0.8
		H375c-17.2,0-34.8,2.1-51.6,6V185.8z M289.8,215.1l16.7-5.4c3.7-1.2,7.4-2.3,11.2-3.3v7.6c-4.3,0.6-8.5,1.3-12.6,2.1l-15.3,2.9
		V215.1z M289.8,224.7l16.3-3.1c3.8-0.7,7.7-1.3,11.6-1.9v11.4h-27.9V224.7z M323.4,218.8c16.9-2.3,34.4-3.5,51.7-3.5l0.5,0l0.5,0
		c6.2,0,12.4,0.2,18.6,0.5l0,15.3h-71.3V218.8z M306.8,180.9c3.6-1.7,7.2-3.3,10.9-4.7v5.7c-4.5,1.7-8.9,3.6-13.3,5.6l-14.6,6.9
		v-5.5L306.8,180.9z M289.8,236.7h27.9v15h-27.9V236.7z"/>
	<path class="st0" d="M31.9,257.4h73.9c0,0,0,0,0.1,0c0,0,0,0,0.1,0h92.8c1.6,0,2.8-1.3,2.8-2.8c0-1.6-1.3-2.8-2.8-2.8h-91.2
		C94.1,228.3,87,201.7,87,174.5c0-19.1,3.4-37.7,10.1-55.4c5.7-0.1,27.8,1.6,34.1,36.3c0.2,1.4,1.4,2.3,2.8,2.3c0.2,0,0.3,0,0.5,0
		c1.5-0.3,2.6-1.8,2.3-3.3c-5.5-30-22.2-38.1-32.8-40.2c3.2-1.7,7.4-3.6,12.1-4.8c14.1-3.5,26.3,0.4,36.3,11.8c0.6,0.6,1.3,1,2.1,1
		c0.7,0,1.3-0.2,1.9-0.7c1.2-1,1.3-2.8,0.3-4c-22.2-25.2-49.4-12.1-59.3-6c-1.6-7.3-5.9-21.4-16.9-29.8c-7.3-5.6-16.3-7.6-26.6-6
		c-1.5,0.2-2.6,1.7-2.4,3.2c0.2,1.5,1.7,2.6,3.2,2.4c8.7-1.4,16.2,0.3,22.3,4.9c8.2,6.2,12.2,16.6,14.1,23.5
		c-10-6.4-30.7-15.6-53.5-1.2c-1.3,0.8-1.7,2.6-0.9,3.9c0.8,1.3,2.6,1.7,3.9,0.9c24.1-15.3,45.2-1,51.2,3.8
		c-7,18.3-10.5,37.6-10.5,57.5c0,27.1,6.8,53.6,19.7,77.2H31.9c-1.6,0-2.8,1.3-2.8,2.8C29.1,256.2,30.4,257.4,31.9,257.4z"/>
	<path class="st0" d="M287.8,140.2c0.5,0.4,1.2,0.7,1.8,0.7s1.3-0.2,1.8-0.7c10.3-8.7,22.6-2,23.1-1.7c1.4,0.8,3.1,0.3,3.9-1.1
		c0.8-1.4,0.3-3.1-1.1-3.9c-0.6-0.4-14.8-8.2-27.7,0.9c-12.9-9.1-27.1-1.3-27.7-0.9c-1.4,0.8-1.8,2.5-1.1,3.8
		c0.8,1.4,2.5,1.8,3.9,1.1C265.2,138.2,277.4,131.5,287.8,140.2z"/>
	<path class="st0" d="M191.2,89.4c0.5-0.3,12.8-7,23.1,1.7c0.5,0.4,1.2,0.7,1.8,0.7c0.6,0,1.3-0.2,1.8-0.7c10.3-8.7,22.6-2,23.1-1.7
		c1.4,0.8,3.1,0.3,3.9-1.1c0.8-1.4,0.3-3.1-1.1-3.9c-0.6-0.4-14.8-8.2-27.7,0.9c-12.9-9.1-27.1-1.3-27.7-0.9
		c-1.4,0.8-1.8,2.5-1.1,3.8C188.1,89.7,189.8,90.1,191.2,89.4z"/>
	<path class="st0" d="M416.7,236.7c7,0,12.3-5.3,12.3-12.3c0-6.9-5.4-12.3-12.3-12.3c-7.2,0-12.3,5-12.3,12.3
		C404.4,231.7,409.4,236.7,416.7,236.7z M416.7,217.9c3.7,0,6.6,2.9,6.6,6.6c0,3.9-2.7,6.6-6.6,6.6c-3.2,0-6.6-1.7-6.6-6.6
		S413.5,217.9,416.7,217.9z"/>
	<path class="st0" d="M416,201.7c0.3,0,0.6,0,0.9,0c5.4,0,11.2-3.8,11.8-10.4c0.3-3.9-0.7-7.4-3-10c-2.2-2.5-5.4-4-8.8-4.1
		c-3.2-0.1-6.3,1-8.6,3.2c-2.4,2.3-3.8,5.6-3.8,9C404.5,196.1,409.2,201.1,416,201.7z M412.2,184.5c0.8-0.8,2.2-1.7,4.2-1.7
		c0.1,0,0.2,0,0.3,0c1.9,0.1,3.6,0.9,4.8,2.2c1.3,1.4,1.8,3.4,1.6,5.8c-0.3,3.6-3.7,5.5-6.6,5.2c-3.8-0.3-6.3-2.9-6.3-6.6
		C410.2,187.6,410.9,185.8,412.2,184.5z"/>
</g>
</svg>
